<?xml version="1.0" encoding="utf-8"?>
<!-- Generator: Adobe Illustrator 28.0.0, SVG Export Plug-In . SVG Version: 6.00 Build 0)  -->
<svg version="1.1" id="CBEA" xmlns="http://www.w3.org/2000/svg" xmlns:xlink="http://www.w3.org/1999/xlink" x="0px" y="0px"
	 viewBox="0 0 601.3 400" style="enable-background:new 0 0 601.3 400;" xml:space="preserve">
<g>
	<path d="M319,298.2c3.2,3.7,10,5.7,16,5.7c8.7,0,15.6-4.4,15.6-11.9c0-7.8-6.9-9.3-13.1-10.5c-4.2-0.8-6.2-1-6.2-2.9
		c0-1.6,1.6-2.5,4.2-2.5c3.4,0,6.8,1.5,9.4,4.2l5.2-6.7c-2.9-3.1-8.3-5.5-14.5-5.5c-8.5,0-14.7,4.6-14.7,11.6c0,7.4,6.1,8.9,11.7,10
		c5.5,1,7.8,1.2,7.8,3.5c0,1.8-2.3,2.7-5,2.7c-3.7,0-8.1-1.8-10.9-4.9L319,298.2z M301.5,276.2c3.8,0,5.9,2.6,5.9,5.7h-12.6
		C295.8,278.1,298.3,276.2,301.5,276.2 M301.8,303.9c6.8,0,13.1-3.5,15.6-10l-8.7-2.8c-1,3-3.5,4.6-6.8,4.6c-4,0-6.8-2.7-7.5-7.4
		h23.3v-2.7c0-9.7-5.7-17.4-16.1-17.4c-9.9,0-17.2,7.7-17.2,17.9C284.4,296.7,291.5,303.9,301.8,303.9 M280,268.9h-10.4v34.3H280
		V268.9z M269.5,265.3h10.6v-8.9h-10.6V265.3z M247.3,294c0,7,3.7,9.5,11.1,9.5c2.5,0,4.4-0.2,6.3-0.5v-8.5c-1.2,0.1-1.8,0.2-3,0.2
		c-2.6,0-4.1-0.5-4.1-3.4v-13.9h6.7v-8.6h-6.7v-9.5h-10.3v9.5h-4.4v8.6h4.4V294z M239.4,268.9h-10.4v34.3h10.4V268.9z M228.9,265.3
		h10.6v-8.9h-10.6V265.3z M194.3,279.8c0-8.9,4.6-14.7,11.1-14.7c4.8,0,8.3,3.1,9.4,8l10.2-3.4c-2.9-8.5-9.5-14.1-19.6-14.1
		c-12.8,0-22.1,10-22.1,24.1c0,14.1,9.3,24.1,22.1,24.1c10,0,16.7-5.5,19.6-14.1l-10.2-3.4c-1.1,5-4.6,8-9.4,8
		C198.9,294.5,194.3,288.7,194.3,279.8"/>
	<path d="M401.7,223.2c3.8,0,5.9,2.6,5.9,5.7H395C396,225.1,398.5,223.2,401.7,223.2 M402,250.9c6.8,0,13.1-3.5,15.6-10l-8.7-2.8
		c-1,3-3.5,4.6-6.8,4.6c-4,0-6.8-2.7-7.5-7.4h23.3v-2.7c0-9.7-5.7-17.4-16.1-17.4c-9.9,0-17.2,7.7-17.2,17.9
		C384.6,243.7,391.6,250.9,402,250.9 M348.9,250.2h10.4v-19.6c0-4,2.8-6.1,5.7-6.1c3.4,0,4.8,2.5,4.8,6v19.7h10.4v-22.7
		c0-7.5-4.4-12.4-11.5-12.4c-4.4,0-7.6,2-9.5,4.2v-15.9h-10.4V250.2z M326.6,241c0,7,3.7,9.5,11.1,9.5c2.5,0,4.4-0.2,6.3-0.5v-8.5
		c-1.2,0.1-1.8,0.2-3,0.2c-2.6,0-4.1-0.5-4.1-3.4v-13.9h6.7v-8.6h-6.7v-9.5h-10.3v9.5h-4.4v8.6h4.4V241z M308.3,237.9
		c0,3.5-3.2,5.3-6.6,5.3c-2.5,0-4.1-1.2-4.1-3.3c0-2.4,2-3.3,4.8-3.8l6-1.1V237.9z M299.2,250.8c4.5,0,7.9-1.4,10.2-3.7
		c1.8,2.9,5.8,4,11.8,3.1v-7.7c-2,0.3-2.7-0.3-2.7-2v-13.2c0-8-5.5-12.1-14.5-12.1c-8.7,0-14.1,5-15.6,11l10,1.5
		c0.7-2.8,2.2-4.1,5.2-4.1c3.4,0,4.8,1.6,4.8,4.2v0.6l-7.7,1.3c-7.2,1-13.2,3.9-13.2,11C287.4,246.7,292.3,250.8,299.2,250.8
		 M268.7,223.2c3.8,0,5.9,2.6,5.9,5.7h-12.6C263,225.1,265.5,223.2,268.7,223.2 M269,250.9c6.8,0,13.1-3.5,15.6-10l-8.7-2.8
		c-1,3-3.5,4.6-6.8,4.6c-4,0-6.8-2.7-7.5-7.4h23.3v-2.7c0-9.7-5.7-17.4-16.1-17.4c-9.9,0-17.2,7.7-17.2,17.9
		C251.6,243.7,258.6,250.9,269,250.9 M249.4,215.8c-0.7-0.1-1.3-0.1-2.3-0.1c-4,0-7.3,2-8.9,4.7v-4.5h-10.4v34.3h10.4v-16.9
		c0-5,3.6-7.8,8.1-7.8c1.2,0,2,0.1,3.1,0.3V215.8z M196,230.6h9.9c4.2,0,6.5,2.2,6.5,5.3c0,3.1-2.3,5.3-6.5,5.3H196V230.6z
		 M196,222.2v-9.8h8.6c4.2,0,6.6,1.6,6.6,4.9c0,3.3-2.3,5-6.6,5H196z M185.6,250.2h21.3c10,0,15.9-4.9,15.9-13.2
		c0-5.6-3.3-9.5-7.7-11.1c3.1-1.3,6.3-4.5,6.3-9.9c0-8.1-5.5-12.6-15.7-12.6h-20.1V250.2z"/>
	<path d="M256,119v-1.7c0-1.3,0.3-2.5,0.8-3.6c0.7-1.7,2-3.1,3.6-4.2c1.6-1,3.6-1.7,5.7-1.7c2.9,0,5.4,1.1,7.2,2.8
		c0.9,0.9,1.6,1.9,2.1,3c0.5,1.1,0.8,2.3,0.8,3.6c0,1.3-0.3,2.5-0.8,3.6c-0.7,1.7-2,3.1-3.6,4.2c-1.6,1-3.6,1.7-5.7,1.7h-53.8v11.8
		h53.8c6,0,11.4-2.3,15.4-6.1c2-1.9,3.6-4.2,4.7-6.8c1.1-2.6,1.8-5.4,1.8-8.3c0-2.9-0.6-5.8-1.8-8.3c-1.7-3.8-4.5-7.1-8-9.3
		c-3.5-2.3-7.7-3.6-12.1-3.6c-6,0-11.4,2.3-15.4,6.1c-2,1.9-3.6,4.2-4.7,6.8c-1.1,2.6-1.8,5.4-1.8,8.3v1.7H256z"/>
	<path d="M244.4,171.4c0,6.9,2.8,13.2,7.3,17.7c4.5,4.5,10.8,7.4,17.6,7.4c6.9,0,13.2-2.8,17.6-7.4c4.5-4.5,7.3-10.8,7.3-17.7
		c0-6.9-2.8-13.2-7.3-17.7c-4.5-4.5-10.8-7.4-17.6-7.4h-83.8v11.8h83.8c3.6,0,6.8,1.5,9.2,3.9c2.4,2.4,3.9,5.7,3.9,9.4
		c0,3.7-1.5,7-3.9,9.4c-2.4,2.4-5.6,3.9-9.2,3.9c-3.6,0-6.8-1.5-9.2-3.9c-2.4-2.4-3.9-5.7-3.9-9.4v-5.5h-11.8V171.4z"/>
</g>
</svg>
