<?xml version="1.0" encoding="UTF-8"?>
<svg xmlns="http://www.w3.org/2000/svg" width="202" height="62" fill="none" viewBox="0 0 202 62">
  <g clip-path="url(#a)">
    <mask id="b" width="202" height="62" x="0" y="0" maskUnits="userSpaceOnUse" style="mask-type:luminance">
      <path fill="#fff" d="M201.081 0H0v62h201.081V0Z"></path>
    </mask>
    <g mask="url(#b)">
      <path fill="#fff" d="M200.134 42.224v-4.227h-.946c-.071.729-.106 1.076-.702 1.076-.28 0-.42-.07-.771-.278-.561-.312-1.473-.625-2.621-.625-3.147 0-4.48 2.284-4.48 4.436 0 3.256 2.376 4.02 4.515 4.714 1.367.382 3.743.695 3.743 2.422 0 1.077-1.087 2.11-2.832 2.11a4.532 4.532 0 0 1-3.076-1.216c-1.158-1.041-1.333-2.248-1.543-3.29h-.982v4.992h.982c-.035-.208-.07-.868.526-.868.245 0 .561.173 1.087.486.175.139 1.402.799 2.936.799 3.603 0 5.102-2.804 5.102-4.983 0-3.047-2.551-3.777-4.164-4.228l-.981-.278c-.947-.208-2.025-.625-2.341-.868-.386-.347-.631-.868-.631-1.354 0-1.042.947-1.936 2.34-1.936.842 0 1.815.278 2.481.764.982.73 1.157 1.493 1.403 2.352h.955Zm-16.892 9.489c-3.323 0-3.428-3.29-3.463-4.54-.035-.903 0-1.762 0-2.596h9.511c-.245-1.493-.455-2.943-1.788-4.366-1.262-1.355-3.112-2.04-4.97-2.04-4.34 0-7.382 3.116-7.382 7.24 0 4.123 2.902 7.344 7.627 7.344 4.059 0 5.558-2.735 6.329-4.193l-.806-.417c-.842 1.354-2.236 3.568-5.076 3.568m-3.357-9.87c.105-1.355.315-2.908 2.656-2.908 2.165 0 2.27 1.597 2.341 2.769v1.901h-5.041l.035-1.762h.009Zm-12.045-9.35a2.373 2.373 0 0 0 2.375 2.387c1.324 0 2.411-1.076 2.411-2.387a2.387 2.387 0 0 0-2.411-2.387c-1.358 0-2.375 1.076-2.375 2.387Zm-1.508 6.927h2.27v12.093h-2.27v.834h8.565v-.834h-2.131v-13.23c-1.569.105-2.445.14-3.252.209-.876.035-1.674.07-3.182.07v.867-.008Zm-7.101-1.25c-2.305 0-3.392 1.32-4.304 2.388l.07-2.283c-2.13.278-2.446.278-6.469.278v.902h2.165v21.651h-2.165v.903h9.09v-.903h-2.691V50.367c.912 1.077 2.06 2.388 4.515 2.388 2.796 0 4.234-1.693 4.865-2.526 1.297-1.737 1.473-3.325 1.473-4.54 0-5.365-3.708-7.518-6.54-7.518m-.666 13.473c-1.262 0-2.481-1.077-3.112-2.283-.631-1.216-.701-2.561-.701-3.88 0-3.673 1.227-4.888 1.989-5.47.491-.347 1.052-.625 1.675-.625 1.578 0 2.095 1.354 2.34 2.248.316 1.146.351 2.318.386 3.534.07 3.984-.35 6.476-2.586 6.476"></path>
      <path fill="#fff" d="M148.545 45.168c-.316-5.226-4.76-6.997-7.767-6.997-3.428 0-8.013 2.11-8.013 7.205 0 3.707 2.727 7.344 8.083 7.344 4.865 0 6.855-3.22 7.311-4.505.351-.938.456-2.04.386-3.047Zm-7.767 6.892c-1.473 0-2.376-.868-2.762-1.658-.28-.451-.631-1.146-.631-5.052 0-2.908.07-6.337 3.358-6.337 1.332 0 2.305.625 2.866 1.805.176.417.386.903.421 4.402.035 3.22.035 6.858-3.252 6.858m-15.245-13.803c-2.165.208-4.339.278-6.539.278v.868h2.27v12.084h-2.27v.833h9.23v-.833h-2.761v-6.268c0-1.32.246-3.117 1.333-4.575 0 0 1.052-1.354 1.507-1.354.246 0 .491.173.491.347 0 .104-.105.174-.175.313-.21.277-.421.625-.421 1.215 0 .972.772 1.97 2.13 1.97 1.675 0 2.201-1.319 2.201-2.248 0-1.285-.842-2.734-2.902-2.734-1.367 0-2.34.555-3.112 1.458-.386.417-.701.938-1.052 1.493l.07-2.839v-.008Z"></path>
      <path fill="#fff" d="M107.343 28.856c-.561.07-1.227.173-3.077.277-1.367.07-2.516.07-3.392.07v.903h2.375v21.407h-2.375v.834h8.494v-.834h-2.06V45.49c.035-1.875.07-3.985 1.99-5.27.491-.382 1.157-.59 1.885-.59 1.823 0 1.99 1.493 1.955 3.151v8.733h-1.824v.834h8.153v-.834h-2.2V42.65c0-1.077.035-2.18-.877-3.255-.491-.521-1.508-1.216-3.498-1.216-3.182 0-4.795 1.867-5.558 2.804V28.856h.009Z"></path>
      <path fill="#fff" d="M97.376 33.005h-.947c-1.92 4.158-3.989 5.2-5.487 5.886v.52h2.375l-.035 9.42c0 1.458.035 3.915 3.393 3.915 3.357 0 4.269-2.387 4.725-3.95l-.947-.208c-.386 1.32-.912 2.387-1.92 2.387-1.122 0-1.157-1.215-1.157-2.014v-9.558h2.902v-.868h-2.902v-5.538.008Zm-17.559 5.27c-2.48.104-4.41.278-6.434.278v.868h2.27v12.084h-2.27v.833h8.573v-.833h-2.13V45.34c0-1.493 0-2.075.105-2.665.49-1.866 2.34-2.978 3.498-2.978 2.06 0 2.06 1.763 2.06 3.603v8.212h-1.885v.834h8.188v-.834h-2.166v-8.828c0-1.459 0-3.499-2.69-4.263-.912-.243-1.684-.243-1.92-.243a6.92 6.92 0 0 0-2.517.486c-1.367.556-1.92 1.181-2.656 2.04v-2.422l-.026-.008Zm-7.241 12.049c-.28.208-.596.52-1.017.52-.771 0-.806-.971-.806-1.735v-6.615c0-1.18.035-2.77-2.236-3.742-.981-.382-2.13-.59-3.322-.59-3.252 0-5.838 1.493-5.838 3.602 0 1.042.771 1.797 1.85 1.797 1.156 0 1.919-.868 1.919-1.831 0-.243-.07-.486-.175-.66-.105-.278-.316-.486-.421-.73a.786.786 0 0 1-.105-.381c0-.278.526-.938 2.025-.938 2.2 0 2.305 1.111 2.305 2.492v2.595c-2.06.209-4.795.452-6.645 1.797-1.472 1.042-1.92 2.388-1.92 3.464 0 1.007.492 3.325 3.92 3.325 2.585 0 3.988-1.528 4.654-2.283.456.868 1.192 2.283 3.077 2.283 1.648 0 2.656-1.042 3.252-1.658l-.526-.73.01.018Zm-6.715-.07c-.42.313-.912.556-1.473.556-1.192 0-2.27-.903-2.27-2.56 0-2.909 2.902-3.083 4.655-3.187v2.526c0 .869.035 1.902-.912 2.666ZM55.157 28.856c-1.087.208-2.41.312-3.602.347-1.193.035-2.306.035-2.937.035v.902h2.34v21.373h-2.34v.834h8.74v-.834h-2.2V28.856Zm-14.201 3.637a2.381 2.381 0 0 0 2.41 2.387c1.36 0 2.377-1.076 2.377-2.387a2.379 2.379 0 0 0-2.376-2.387c-1.324 0-2.41 1.076-2.41 2.387Zm-1.499 6.927h2.27v12.093h-2.27v.834h8.565v-.834h-2.13v-13.23c-1.57.105-2.446.14-3.253.209-.876.035-1.683.07-3.182.07v.867-.008ZM26.72 28.856c-.561.07-1.228.173-3.112.277-1.368.07-2.481.07-3.393.07v.903h2.41v21.407h-2.41v.834h8.495v-.834h-2.026V45.49c.036-1.875.07-3.985 1.955-5.27.491-.382 1.158-.59 1.894-.59 1.85 0 1.99 1.493 1.955 3.151v8.733h-1.815v.834h8.153v-.834H36.66V42.65c0-1.077.035-2.18-.912-3.255-.456-.521-1.508-1.216-3.498-1.216-3.182 0-4.76 1.867-5.523 2.804V28.856h-.008Z"></path>
      <path fill="#fff" d="M17.945 30.48c-1.78-1.32-3.954-1.355-5.769-1.425H0v.869h2.832v21.58H0v.834h10.879v-.833H7.767V41.46h4.515c1.78 0 3.988-.174 5.698-1.424 2.2-1.589 2.305-3.811 2.305-4.644 0-1.867-.806-3.777-2.34-4.923m-4.27 9.176c-.911.695-2.27.834-2.831.834H7.767V29.915h2.972c1.052 0 2.516.07 3.497 1.354.632.868.772 2.179.772 3.985 0 2.838-.807 4.019-1.333 4.401m136.202-28.257c.176 0 .211 0 .456.313.21.278.596.416.982.416.982 0 1.438-.694 1.438-1.45 0-.972-.737-1.527-1.578-1.527-.421 0-.912.174-1.333.451-.631.452-.806 1.111-.947 1.589-.946-.799-2.2-1.866-4.83-1.866-3.007 0-6.399 1.658-6.399 5.26 0 2.214 1.402 3.29 2.235 3.985-.771.278-3.392 1.18-3.392 4.193 0 .486.07 1.424.911 2.283.631.694 1.122.833 1.824.937-.912.348-2.692.938-2.692 2.77 0 2.04 2.481 4.193 7.276 4.193 4.796 0 7.943-2.214 7.943-6.233 0-1.007-.141-1.867-.807-2.804-1.227-1.702-2.446-1.667-4.83-1.667h-5.733c-1.122 0-2.06-.035-2.06-1.111 0-1.077 1.297-1.728 2.305-2.11.702.313 1.613.73 3.428.73 3.357 0 6.189-1.797 6.189-5.33 0-1.112-.386-1.728-.736-2.388.105-.486.175-.625.35-.625m-2.095 14.862c.701 0 2.376-.035 2.376 1.806 0 2.04-2.376 3.845-6.33 3.845-3.673 0-4.926-1.875-4.926-3.36 0-1.11.526-1.666 1.122-2.282h7.767l-.009-.01Zm-3.778-7.448c-2.201 0-2.306-1.806-2.306-4.402 0-2.318 0-4.332 2.271-4.332.28 0 1.332 0 1.849 1.112.316.729.316 1.458.316 3.36 0 2.352 0 4.262-2.13 4.262Zm-14.202-9.437c-2.165.243-4.374.313-6.574.313v.868h2.27v12.05h-2.27v.867h9.231v-.868h-2.762v-6.268c0-1.32.281-3.081 1.333-4.54 0 0 1.087-1.354 1.543-1.354.245 0 .455.174.455.313 0 .104-.105.208-.14.347-.21.278-.456.625-.456 1.215 0 .972.772 1.945 2.131 1.945 1.718 0 2.235-1.32 2.235-2.214 0-1.32-.877-2.735-2.937-2.735-1.367 0-2.34.556-3.077 1.424-.421.452-.701.973-1.052 1.493l.07-2.838v-.018ZM116.89 22.857c-3.323 0-3.428-3.29-3.463-4.54-.035-.903 0-1.762 0-2.63h9.546c-.245-1.494-.49-2.909-1.814-4.332-1.262-1.354-3.077-2.04-4.971-2.04-4.304 0-7.346 3.116-7.346 7.24 0 4.123 2.902 7.31 7.627 7.31 4.024 0 5.558-2.735 6.329-4.16l-.841-.416c-.842 1.32-2.236 3.568-5.076 3.568m-3.358-9.905c.141-1.32.351-2.908 2.657-2.908 2.165 0 2.27 1.632 2.375 2.77v1.944h-5.067l.035-1.806Zm-12.579-3.637c-2.551 0-3.779 1.32-4.795 2.387V0c-1.403.243-2.937.347-3.603.347h-2.902v.938h2.34v21.338h-2.34v.868h6.47v-2.075c.876 1.077 2.27 2.457 4.9 2.457 1.885 0 3.603-.59 5.041-2.422 1.507-1.867 1.613-3.742 1.613-4.68 0-5.338-3.709-7.448-6.715-7.448m-.667 13.473c-1.192 0-2.48-.694-3.287-1.936-.842-1.284-1.017-3.116-1.017-4.227 0-.903.14-2.7.877-4.02.701-1.25 2.13-2.283 3.427-2.283 2.06 0 2.411 1.876 2.551 2.527.141.937.211 2.456.211 3.429 0 3.637-.105 6.51-2.762 6.51Z"></path>
      <path fill="#fff" d="M69.394 9.384c-1.85.243-2.551.313-6.364.313v.868h2.2v12.05h-2.2v.867h8.398v-.868h-2.06v-6.997c.105-1.528.175-2.63.981-3.602.561-.66 1.438-1.216 2.446-1.216 1.78 0 1.99 1.554 1.99 3.43v8.385h-1.814v.868h7.837v-.868h-1.99v-6.407c0-1.762.07-3.255 1.297-4.436.666-.625 1.473-1.007 2.2-1.007 1.885 0 1.885 1.633 1.885 3.325v8.525h-1.814v.868h8.012v-.868h-2.06v-8.62c-.105-1.806-.14-4.68-4.515-4.68-3.252 0-4.514 2.006-4.997 2.805-.771-1.39-1.612-2.839-4.62-2.839-2.585 0-3.813 1.424-4.794 2.526V9.384h-.018Zm-6.644 6.893c-.352-5.2-4.761-6.962-7.803-6.962-3.393 0-8.012 2.11-8.012 7.205 0 3.707 2.761 7.344 8.117 7.344 4.83 0 6.82-3.22 7.276-4.505.386-.973.491-2.04.421-3.082Zm-7.803 6.893c-1.473 0-2.376-.834-2.761-1.632-.28-.452-.596-1.146-.596-5.087 0-2.909.07-6.338 3.322-6.338 1.333 0 2.34.625 2.867 1.832.21.417.385.868.42 4.367.035 3.255.035 6.858-3.252 6.858Zm-9.196-6.893c-.35-5.2-4.795-6.962-7.802-6.962-3.392 0-8.012 2.11-8.012 7.205 0 3.707 2.726 7.344 8.117 7.344 4.83 0 6.82-3.22 7.276-4.505.386-.973.456-2.04.421-3.082ZM37.95 23.17c-1.472 0-2.375-.834-2.761-1.632-.28-.452-.596-1.146-.596-5.087 0-2.909.035-6.338 3.322-6.338 1.333 0 2.306.625 2.867 1.832.175.417.386.868.42 4.367.036 3.255.036 6.858-3.252 6.858ZM27.386 0c-1.087.208-2.41.313-3.603.347h-2.937v.938h2.34v21.338h-2.34v.868h8.74v-.868h-2.2V0ZM15.84 11.71c-.806-.208-1.604-.277-2.48-.381a16.162 16.162 0 0 0 2.27-.452c2.27-.694 3.884-2.352 3.884-4.922 0-1.667-.596-3.429-2.691-4.644C15.008.312 12.869.243 10.914.208H.07v.834h2.832v21.58H.07v.869h10.388c3.498-.035 7.697-.035 9.476-3.36.562-1.007.667-2.005.667-2.804 0-3.36-2.446-5.017-4.76-5.608M7.837 1.111h2.586c2.726 0 4.129.66 4.129 5.026 0 3.88-1.403 4.784-3.989 4.784H7.837V1.11Zm6.645 19.95c-.877 1.423-2.236 1.553-3.322 1.553H7.836V11.841h3.077c.982 0 2.376.104 3.357 1.285.772.972.912 2.491.912 4.193 0 1.423-.105 2.734-.701 3.741Z"></path>
    </g>
  </g>
  <defs>
    <clipPath id="a">
      <path fill="#fff" d="M0 0h201.081v62H0z"></path>
    </clipPath>
  </defs>
</svg>
