<?xml version="1.0" encoding="UTF-8"?>
<svg xmlns="http://www.w3.org/2000/svg" width="93" height="93" fill="none" viewBox="0 0 93 93">
  <g clip-path="url(#a)">
    <path fill="#fff" d="M0 0h93v93H0z"></path>
    <mask id="b" width="93" height="93" x="0" y="0" maskUnits="userSpaceOnUse" style="mask-type:luminance">
      <path fill="#fff" d="M93 0H0v93h93V0Z"></path>
    </mask>
    <g mask="url(#b)">
      <path fill="#000" d="M89.456 89.365V3.812c0-.075-.03-.157-.052-.246H3.902c-.082 0-.156.03-.26.045v85.532c0 .066.022.133.03.185.037.022.067.045.089.045 28.478 0 56.964.007 85.443.014.066 0 .133-.014.252-.022ZM.112 0H93v92.963c-.208.007-.408.03-.616.03H.372c-.052 0-.112 0-.164-.008-.11-.014-.178-.074-.185-.185-.015-.163-.015-.326-.015-.497V.296A.49.49 0 0 1 .12-.008"></path>
      <path fill="#000" d="M75.016 35.65a7.712 7.712 0 0 0-.52-2.766c-1.32-3.42-4.701-5.221-8.246-4.428-2.18.49-3.76 1.795-4.71 3.805-.956 2.017-1.03 4.116-.297 6.222 1.098 3.13 4.139 5.25 7.854 4.665 2.084-.327 3.671-1.417 4.784-3.19.793-1.267 1.142-2.669 1.135-4.3M67.94 46.662c-2.314-.015-4.397-.549-6.266-1.787-2.41-1.595-3.923-3.827-4.532-6.645-.534-2.455-.319-4.858.764-7.135 1.469-3.1 3.901-5.072 7.231-5.888 2.566-.63 5.095-.445 7.505.652 3.175 1.447 5.17 3.916 5.963 7.298.6 2.544.363 5.043-.794 7.409-1.498 3.07-3.96 4.976-7.268 5.792-.89.215-1.794.29-2.61.304m-20.921-8.186v-7.988c0-.052 0-.111-.082-.133-.022.015-.06.03-.089.06-2.21 2.654-4.413 5.31-6.623 7.972-.014.014-.007.051-.014.089.037.014.066.03.103.037.69.037 6.334.007 6.705-.037Zm3.552 7.772c-.49.06-3.211.044-3.538-.015-.03-.497-.007-1.009-.014-1.513v-3.115c-.104-.022-.178-.044-.26-.044H36.407c-.26-.89-.475-1.765-.705-2.648l.319-.385c3.389-4.005 6.77-8.01 10.16-12.015.356-.423.712-.838 1.068-1.26.096-.12.2-.171.356-.171h2.766c.037 0 .082.015.141.022.015.067.045.14.052.223.008.133 0 .274 0 .415v12.741c.134.015.237.03.341.03h2.188c.133 0 .274.007.423.015.015.066.044.11.044.163v2.729c0 .03-.015.052-.022.081-.089.097-.208.06-.311.067H50.63c-.104.156-.067.312-.067.453v3.678c0 .178 0 .356-.007.556m-19.504-5.71c.274.2 1.965 1.89 2.358 2.358-.015.03-.015.074-.044.096-1.016 1.068-2.143 1.98-3.479 2.618-1 .482-2.054.772-3.159.92a13.187 13.187 0 0 1-3.01.06c-2.419-.26-4.54-1.202-6.29-2.908-1.631-1.587-2.633-3.508-3.04-5.74-.423-2.321-.223-4.59.749-6.749 1.483-3.285 4.012-5.31 7.535-6.089 1.23-.274 2.484-.296 3.737-.185 1.187.104 2.336.37 3.434.845 1.268.55 2.366 1.343 3.36 2.292.022.022.03.045.059.09-.134.259-.37.459-.556.689-.193.237-.393.46-.594.69-.192.215-.378.437-.57.652-.2.223-.386.467-.616.69-.126-.104-.23-.186-.326-.275-.52-.46-1.069-.875-1.662-1.223-1.142-.69-2.38-1.083-3.715-1.09-2.804-.015-4.888 1.23-6.23 3.678-.697 1.276-.95 2.663-.897 4.101.052 1.313.37 2.559 1.03 3.7.935 1.618 2.285 2.73 4.102 3.242.956.267 1.928.29 2.907.17 1.26-.148 2.388-.637 3.404-1.386.423-.312.816-.653 1.224-.987.103-.081.207-.178.304-.26M57.98 55.985c-.059.46-.052 3.293 0 3.597.141.082.297.045.438.045h6.244c.097 0 .186.014.297.022.06.245.022.475.03.704v.742c0 .23.03.467-.03.69-.17.074-.334.044-.497.044H58.47c-.163 0-.326-.022-.497.037-.015.06-.03.112-.03.163v3.494c.149.11.29.074.423.074h7.572c.022.067.06.118.06.163v1.943c0 .022-.016.044-.038.089-.044 0-.089.022-.14.022H55.51c-.014-.104-.029-.178-.036-.252V53.79c.096-.022.17-.044.244-.052.112-.007.223 0 .327 0h9.804c.022.097.044.178.052.252v1.691c0 .067-.007.134-.015.223-.089.014-.163.03-.245.037h-7.149c-.163 0-.326 0-.512.015m10.027 9.819c.504-.594.98-1.165 1.469-1.75.126.096.237.177.34.26.616.489 1.276.919 2.018 1.186.934.34 1.891.474 2.877.296a2.58 2.58 0 0 0 1.031-.407c.63-.445.801-1.12.601-1.87-.074-.289-.274-.504-.52-.674a3.637 3.637 0 0 0-.844-.43c-.557-.216-1.128-.356-1.706-.497-.734-.178-1.469-.379-2.166-.66a5.63 5.63 0 0 1-1.194-.646c-.756-.548-1.179-1.283-1.305-2.21-.074-.548-.074-1.097.052-1.639.245-1.06.86-1.861 1.78-2.432a4.791 4.791 0 0 1 1.846-.675c2.203-.304 4.213.178 5.993 1.528l.17.148c-.17.356-.43.638-.638.95-.207.303-.43.6-.652.919l-.4-.26c-.683-.46-1.402-.823-2.196-1.016-.704-.17-1.409-.222-2.12-.044a2.055 2.055 0 0 0-.846.415c-.638.52-.66 1.283-.445 1.832.096.237.26.415.467.564a3.6 3.6 0 0 0 .8.422c.616.245 1.254.408 1.9.564.697.17 1.379.363 2.039.645.378.163.749.349 1.083.586.897.623 1.38 1.476 1.438 2.566.03.512.008 1.023-.126 1.513-.252.927-.786 1.654-1.587 2.188a4.759 4.759 0 0 1-1.869.741c-2.684.438-5.072-.237-7.156-1.98-.045-.037-.075-.081-.141-.156M25.453 64.01c.281.215 1.216 1.142 1.587 1.572-.06.067-.112.148-.178.215-.927.935-1.988 1.661-3.27 2.002a8.287 8.287 0 0 1-3.197.223 6.895 6.895 0 0 1-3.538-1.476c-1.357-1.083-2.188-2.5-2.529-4.19-.296-1.476-.2-2.937.371-4.339 1.016-2.477 2.863-3.96 5.503-4.397 1.446-.245 2.885-.12 4.264.422.898.349 1.669.89 2.366 1.55.03.03.052.067.074.097.008.007.008.022.015.037-.341.445-1.305 1.542-1.565 1.78-.089-.074-.185-.141-.274-.223a6.617 6.617 0 0 0-1.246-.875c-1.053-.57-2.18-.764-3.352-.519-1.328.282-2.329 1.03-3.004 2.203-.979 1.69-.927 3.982.141 5.621.69 1.068 1.654 1.765 2.907 2.003 1.15.215 2.247.074 3.286-.482a7.318 7.318 0 0 0 1.216-.853c.133-.12.267-.23.423-.364m16.545 3.797c-.46.045-2.106.037-2.462-.007 0-.067-.022-.148-.022-.23V56.594c0-.164.022-.327-.03-.497-.148-.082-.304-.052-.452-.052h-3.938c-.097-.386-.045-.757-.052-1.12 0-.371-.015-.742.015-1.127.096-.015.178-.03.252-.038h10.613c.163 0 .326 0 .489.008.104.26.044.512.052.756.007.245 0 .497 0 .742s.022.49-.022.734c-.163.067-.312.045-.46.045H42.51c-.148 0-.297.007-.475.014-.014.097-.03.178-.037.253v10.983c0 .163 0 .326-.007.512m-9.752.023H29.85c-.015-.082-.038-.164-.045-.238V54.295c0-.164-.03-.327.044-.483.342-.066 2.04-.066 2.403 0 .008.06.023.127.023.186.044 1.164.014 13.43-.038 13.831Zm16.975-14.01c.386-.074 2.092-.074 2.455 0 .008.06.022.126.022.185.045 1.224.015 13.438-.03 13.794-.281.067-1.787.082-2.402.03-.015-.074-.037-.148-.045-.23-.007-.096 0-.193 0-.289V53.82Z"></path>
    </g>
  </g>
  <defs>
    <clipPath id="a">
      <path fill="#fff" d="M0 0h93v93H0z"></path>
    </clipPath>
  </defs>
</svg>
