<?xml version="1.0" encoding="UTF-8"?>
<svg xmlns="http://www.w3.org/2000/svg" width="123" height="72" fill="none" viewBox="0 0 123 72">
  <g clip-path="url(#a)">
    <mask id="b" width="123" height="72" x="0" y="0" maskUnits="userSpaceOnUse" style="mask-type:luminance">
      <path fill="#fff" d="M122.927 0H0v72h122.927V0Z"></path>
    </mask>
    <g mask="url(#b)">
      <path fill="#fff" d="M42.332 20.523v-2.964c0-.334-.268-.6-.604-.6h-7.082a.284.284 0 0 1-.299-.296v-3.564c0-.182.123-.296.299-.296h6.722a.586.586 0 0 0 .59-.6V9.239c0-.326-.26-.6-.59-.6h-6.722a.284.284 0 0 1-.299-.296V4.779c0-.182.123-.296.299-.296h6.96a.608.608 0 0 0 .603-.6V.919c0-.334-.267-.6-.604-.6H30.768a.59.59 0 0 0-.589.6v19.604c0 .326.26.6.589.6h10.96a.609.609 0 0 0 .604-.6Zm-14.998-3.564h-6.271a.284.284 0 0 1-.299-.296V.919c0-.334-.267-.6-.604-.6h-2.975a.604.604 0 0 0-.604.6v19.604c0 .326.268.6.604.6h10.15a.609.609 0 0 0 .603-.6v-2.964c0-.334-.267-.6-.604-.6ZM46.21 38.295h-2.746c-.176 0-.298-.084-.237-.335l1.43-7.127c.038-.083.061-.114.145-.114h.061c.084 0 .123.023.146.114l1.438 7.127c.045.243-.062.335-.245.335m1.231-12.241a.579.579 0 0 0-.566-.44h-4c-.267 0-.52.174-.566.44l-5.346 19.755c-.06.266.107.6.59.6h3.142c.26 0 .505-.182.567-.44l.84-3.062c.047-.266.169-.449.444-.449h4.543c.26 0 .383.206.444.449l.925 3.062c.084.258.298.44.566.44h3.144c.481 0 .65-.334.589-.6L47.44 26.054h-.008Zm10.967-.441h-2.99a.582.582 0 0 0-.589.585v19.603c0 .335.26.6.589.6h2.99a.595.595 0 0 0 .59-.6V26.198a.587.587 0 0 0-.59-.585Zm10.57 8.305h-2.684c-.184 0-.299-.114-.299-.296v-3.564c0-.174.115-.296.299-.296h2.684c1.132 0 2.096.957 2.096 2.082 0 1.124-.957 2.074-2.096 2.074Zm3.166 3.184c2.119-1.421 3.105-2.979 3.105-5.258 0-3.42-2.837-6.238-6.263-6.238h-6.562a.596.596 0 0 0-.605.585v19.603c0 .334.268.6.605.6h2.982a.603.603 0 0 0 .605-.6v-7.423c0-.175.114-.297.298-.297h.78c.329 0 .482.236.543.38l3.044 7.34c.145.357.382.6.864.6h3.075c.588 0 .78-.44.566-.896l-3.19-7.424c-.206-.44-.245-.684.176-.98M62.393 21.13h2.982a.603.603 0 0 0 .605-.6V10.25c0-.175.206-.236.275-.06l4.061 10.424c.084.243.298.516.803.516h3.518a.603.603 0 0 0 .604-.6V.92c0-.335-.267-.6-.604-.6h-2.975a.604.604 0 0 0-.604.6v11.16c0 .182-.207.243-.268.06L66.706.86c-.084-.266-.298-.54-.742-.54h-3.556a.59.59 0 0 0-.589.6v19.604c0 .326.26.6.589.6m-9.216-8.108h-2.746c-.175 0-.298-.1-.237-.335l1.43-7.134c.039-.084.062-.122.146-.122h.061c.084 0 .122.038.145.122l1.438 7.134c.054.236-.061.335-.245.335M54.416.775a.585.585 0 0 0-.566-.456h-4a.56.56 0 0 0-.566.456L43.938 20.53c-.061.266.107.6.589.6h3.143c.26 0 .505-.182.566-.456l.841-3.061c.046-.259.169-.441.444-.441h4.543c.26 0 .382.205.444.44l.925 3.063c.084.265.298.455.566.455h3.136c.481 0 .65-.334.589-.6L54.416.775ZM7.334 0C3.212 0 .65 3.001.23 6.557c-.305 2.5-.305 5.836 0 8.32.421 3.564 2.983 6.565 7.105 6.565 4.123 0 7.106-2.796 7.106-6.778v-.022c0-.327-.268-.6-.605-.6h-2.982c-.337 0-.605.303-.605.622v.038c0 1.277-1.154 2.546-2.914 2.546-1.759 0-2.745-1.064-2.89-2.378-.306-2.485-.306-5.82 0-8.32.145-1.3 1.07-2.379 2.89-2.379s2.914 1.376 2.914 2.584v.038a.59.59 0 0 0 .605.585h2.982a.616.616 0 0 0 .604-.585v-.038C14.44 2.819 11.45 0 7.335 0Zm111.157 65.116c-.145 1.3-1.071 2.401-2.447 2.401h-2.387a.288.288 0 0 1-.298-.296V55.337c0-.182.122-.296.298-.296h2.387c1.376 0 2.302 1.094 2.447 2.401.298 2.5.298 5.174 0 7.674Zm4.214-7.674c-.421-3.563-2.983-6.565-6.661-6.565h-6.264a.586.586 0 0 0-.589.6v19.604c0 .334.26.585.589.585h6.264c3.678 0 6.24-3.002 6.661-6.557.298-2.5.298-5.167 0-7.675m-17.017-6.557h-2.99a.596.596 0 0 0-.589.6V62.64c0 .182-.207.243-.275.06l-4.085-11.282a.734.734 0 0 0-.749-.54h-3.549a.603.603 0 0 0-.604.6v19.604c0 .334.268.585.604.585h2.975a.59.59 0 0 0 .605-.585V60.8c0-.183.214-.236.267-.061l4.054 10.424c.099.243.306.502.81.502h3.518a.577.577 0 0 0 .589-.585V51.477c0-.326-.26-.6-.589-.6m-16.496 0H86.17a.595.595 0 0 0-.588.6v13.958c0 1.315-1.071 2.379-2.891 2.379s-2.846-1.064-2.846-2.379V51.477c0-.326-.275-.6-.588-.6h-3.014a.604.604 0 0 0-.604.6v13.958c0 3.602 2.99 6.565 7.052 6.565 4.06 0 7.105-2.963 7.105-6.565V51.477c0-.326-.268-.6-.605-.6m-16.374 0h-10.44a.604.604 0 0 0-.604.6v19.604c0 .334.268.585.604.585h2.983a.596.596 0 0 0 .604-.585v-7.424c0-.182.115-.304.299-.304h6.263a.59.59 0 0 0 .605-.585v-2.963c0-.334-.268-.6-.605-.6h-6.263c-.184 0-.299-.122-.299-.297v-3.563c0-.182.115-.296.299-.296h6.561a.599.599 0 0 0 .605-.6v-2.964c0-.327-.268-.6-.605-.6"></path>
    </g>
  </g>
  <defs>
    <clipPath id="a">
      <path fill="#fff" d="M0 0h122.927v72H0z"></path>
    </clipPath>
  </defs>
</svg>
