<?xml version="1.0" encoding="utf-8"?>
<!-- Generator: Adobe Illustrator 28.0.0, SVG Export Plug-In . SVG Version: 6.00 Build 0)  -->
<svg version="1.1" id="CBEA" xmlns="http://www.w3.org/2000/svg" xmlns:xlink="http://www.w3.org/1999/xlink" x="0px" y="0px"
	 viewBox="0 0 601.3 300.8" style="enable-background:new 0 0 601.3 300.8;" xml:space="preserve">
<g>
	<path d="M382,194.4c3.2,3.7,10,5.7,16,5.7c8.7,0,15.6-4.4,15.6-11.9c0-7.8-6.9-9.3-13.1-10.5c-4.2-0.8-6.2-1-6.2-2.9
		c0-1.6,1.6-2.5,4.2-2.5c3.4,0,6.8,1.5,9.4,4.2l5.2-6.7c-2.9-3.1-8.3-5.5-14.5-5.5c-8.5,0-14.7,4.6-14.7,11.6c0,7.4,6.1,8.9,11.7,10
		c5.5,1,7.8,1.2,7.8,3.5c0,1.8-2.3,2.7-5,2.7c-3.7,0-8.1-1.8-11-4.9L382,194.4z M364.5,172.4c3.9,0,5.9,2.6,5.9,5.7h-12.6
		C358.9,174.3,361.4,172.4,364.5,172.4 M364.9,200.1c6.8,0,13.1-3.4,15.6-10l-8.7-2.8c-1,3-3.5,4.6-6.8,4.6c-4,0-6.8-2.7-7.5-7.4
		h23.3v-2.7c0-9.7-5.7-17.4-16.1-17.4c-9.9,0-17.2,7.7-17.2,17.9C347.5,192.9,354.5,200.1,364.9,200.1 M343,165h-10.4v34.3H343V165z
		 M332.5,161.5h10.6v-8.9h-10.6V161.5z M310.3,190.2c0,7,3.7,9.5,11.1,9.5c2.5,0,4.4-0.2,6.3-0.5v-8.5c-1.2,0.1-1.8,0.2-3,0.2
		c-2.6,0-4.1-0.5-4.1-3.4v-13.9h6.7V165h-6.7v-9.5h-10.3v9.5h-4.4v8.6h4.4V190.2L310.3,190.2z M302.4,165H292v34.3h10.4V165z
		 M291.9,161.5h10.6v-8.9h-10.6V161.5z M257.4,176c0-8.9,4.6-14.7,11.1-14.7c4.8,0,8.3,3.1,9.4,8l10.2-3.4
		c-2.9-8.5-9.5-14.1-19.5-14.1c-12.8,0-22.1,10-22.1,24.1s9.3,24.1,22.1,24.1c10,0,16.7-5.5,19.5-14.1l-10.2-3.4
		c-1.1,4.9-4.6,8-9.4,8C262,190.6,257.4,184.9,257.4,176"/>
	<path d="M464.7,119.4c3.9,0,5.9,2.6,5.9,5.7H458C459,121.3,461.5,119.4,464.7,119.4 M465,147.1c6.8,0,13.1-3.4,15.6-10l-8.7-2.8
		c-1,3-3.5,4.6-6.8,4.6c-4,0-6.8-2.7-7.5-7.4h23.3v-2.7c0-9.7-5.7-17.4-16.1-17.4c-9.9,0-17.2,7.7-17.2,17.9
		C447.6,139.9,454.7,147.1,465,147.1 M411.9,146.4h10.4v-19.6c0-4,2.8-6.1,5.7-6.1c3.4,0,4.8,2.5,4.8,6v19.7h10.4v-22.7
		c0-7.5-4.4-12.4-11.5-12.4c-4.4,0-7.6,2-9.5,4.2V99.6h-10.4v46.8H411.9z M389.6,137.2c0,7,3.7,9.5,11.1,9.5c2.5,0,4.4-0.2,6.3-0.5
		v-8.5c-1.2,0.1-1.8,0.2-3,0.2c-2.6,0-4.1-0.5-4.1-3.4v-13.9h6.7V112h-6.7v-9.5h-10.3v9.5h-4.4v8.6h4.4V137.2L389.6,137.2z
		 M371.3,134.1c0,3.5-3.2,5.3-6.6,5.3c-2.5,0-4.1-1.2-4.1-3.3c0-2.4,2-3.3,4.8-3.8l6-1.1L371.3,134.1L371.3,134.1z M362.3,147
		c4.5,0,7.9-1.4,10.2-3.7c1.8,2.9,5.8,4,11.8,3.1v-7.7c-2,0.3-2.7-0.3-2.7-2v-13.2c0-8-5.5-12.1-14.5-12.1c-8.7,0-14.1,4.9-15.6,11
		l10,1.5c0.6-2.8,2.2-4.1,5.2-4.1c3.4,0,4.8,1.6,4.8,4.2v0.6l-7.7,1.3c-7.2,1-13.2,3.9-13.2,11C350.4,142.9,355.4,147,362.3,147
		 M331.7,119.4c3.9,0,5.9,2.6,5.9,5.7H325C326,121.3,328.5,119.4,331.7,119.4 M332,147.1c6.8,0,13.1-3.4,15.6-10l-8.7-2.8
		c-1,3-3.5,4.6-6.8,4.6c-4,0-6.8-2.7-7.5-7.4h23.3v-2.7c0-9.7-5.7-17.4-16.1-17.4c-9.9,0-17.2,7.7-17.2,17.9
		C314.6,139.9,321.6,147.1,332,147.1 M312.5,112c-0.6-0.1-1.3-0.1-2.3-0.1c-4,0-7.3,2-8.9,4.7V112h-10.4v34.3h10.4v-16.9
		c0-4.9,3.6-7.8,8.1-7.8c1.2,0,2,0.1,3.1,0.3L312.5,112L312.5,112z M259.1,126.8h9.9c4.2,0,6.5,2.1,6.5,5.3s-2.3,5.3-6.5,5.3h-9.9
		V126.8z M259.1,118.4v-9.8h8.6c4.2,0,6.6,1.6,6.6,4.9s-2.4,4.9-6.6,4.9H259.1z M248.6,146.4h21.3c10,0,15.9-4.9,15.9-13.2
		c0-5.6-3.3-9.5-7.7-11.2c3.1-1.3,6.3-4.5,6.3-9.9c0-8.2-5.5-12.6-15.7-12.6h-20.1L248.6,146.4L248.6,146.4z"/>
	<path d="M190.8,123.7V122c0-1.3,0.3-2.5,0.8-3.6c0.7-1.7,2-3.1,3.6-4.2s3.6-1.7,5.7-1.7c2.9,0,5.4,1.1,7.2,2.8
		c0.9,0.9,1.6,1.9,2.1,3s0.8,2.3,0.8,3.6c0,1.3-0.3,2.5-0.8,3.6c-0.7,1.7-2,3.1-3.6,4.2s-3.6,1.7-5.7,1.7h-53.8v11.8h53.8
		c5.9,0,11.4-2.3,15.4-6.1c2-1.9,3.6-4.2,4.7-6.8s1.8-5.4,1.8-8.3s-0.6-5.8-1.8-8.3c-1.7-3.8-4.5-7.1-8-9.3s-7.7-3.6-12.1-3.6
		c-6,0-11.4,2.3-15.4,6.1c-2,1.9-3.6,4.2-4.7,6.8s-1.8,5.4-1.8,8.3v1.7H190.8L190.8,123.7z"/>
	<path d="M179.2,176.1c0,6.9,2.8,13.2,7.3,17.7s10.8,7.4,17.6,7.4c6.9,0,13.1-2.8,17.6-7.4c4.5-4.5,7.3-10.8,7.3-17.7
		s-2.8-13.2-7.3-17.7s-10.8-7.4-17.6-7.4h-83.8v11.8h83.8c3.6,0,6.8,1.5,9.2,3.9s3.9,5.7,3.9,9.4s-1.5,7-3.9,9.4s-5.6,3.9-9.2,3.9
		c-3.6,0-6.8-1.5-9.2-3.9s-3.9-5.7-3.9-9.4v-5.5h-11.8L179.2,176.1L179.2,176.1z"/>
</g>
</svg>
