<?xml version="1.0" encoding="utf-8"?>
<!-- Generator: Adobe Illustrator 28.0.0, SVG Export Plug-In . SVG Version: 6.00 Build 0)  -->
<svg version="1.1" id="Layer_1" xmlns="http://www.w3.org/2000/svg" xmlns:xlink="http://www.w3.org/1999/xlink" x="0px" y="0px"
	 viewBox="0 0 600 400" style="enable-background:new 0 0 600 400;" xml:space="preserve">
<style type="text/css">
	.st0{fill:#0071C7;}
</style>
<g>
	<g>
		<path class="st0" d="M468.3,78.2c-31.3,0-56.7,25.4-56.7,56.7v5.8h32.7v-5.8c0-13.2,10.8-23.9,24-23.9c13.2,0,24,10.7,24,23.9
			c0,13.2-10.8,23.9-24,23.9H137.4v32.7h330.8c31.3,0,56.7-25.4,56.7-56.7S499.6,78.2,468.3,78.2"/>
	</g>
	<g>
		<path class="st0" d="M406.5,321.9c-31.3,0-56.8-25.5-56.8-56.8v-5.8h32.8v5.8c0,13.2,10.8,24,24,24c13.2,0,24-10.8,24-24
			c0-13.2-10.8-24-24-24H75v-32.8h331.5c31.3,0,56.8,25.5,56.8,56.8C463.4,296.4,437.9,321.9,406.5,321.9"/>
	</g>
</g>
</svg>
